<svg viewBox="0 0 860 640" xmlns="http://www.w3.org/2000/svg"
     font-family="-apple-system, BlinkMacSystemFont, 'Segoe UI', sans-serif">
  <defs>
    <marker id="arr" markerWidth="8" markerHeight="6" refX="7" refY="3" orient="auto">
      <polygon points="0 0,8 3,0 6" fill="#555"/>
    </marker>
    <marker id="arr-grn" markerWidth="8" markerHeight="6" refX="7" refY="3" orient="auto">
      <polygon points="0 0,8 3,0 6" fill="#16a34a"/>
    </marker>
  </defs>

  <!-- Title -->
  <text x="430" y="26" text-anchor="middle" font-size="15" font-weight="700" fill="#1f2937">Spyre Core Architecture: 2 Corelets with Shared LX Scratchpad</text>

  <!-- Outer core box -->
  <rect x="30" y="44" width="800" height="510" rx="8" fill="#fafafa" stroke="#dddddd" stroke-width="1.5" stroke-dasharray="6,3"/>
  <text x="50" y="64" font-size="12" font-weight="700" fill="#374151">Spyre Core (1 of 32)</text>

  <!-- ============================== -->
  <!-- CORELET 0 (left)               -->
  <!-- ============================== -->
  <rect x="50" y="80" width="370" height="340" rx="6" fill="#ffffff" stroke="#374151" stroke-width="1.5"/>
  <rect x="50" y="80" width="370" height="32" rx="6" fill="#374151"/>
  <rect x="50" y="100" width="370" height="12" fill="#374151"/>
  <text x="235" y="101" text-anchor="middle" font-size="13" font-weight="700" fill="#ffffff">Corelet 0</text>

  <!-- PE Array -->
  <rect x="70" y="124" width="240" height="200" rx="5" fill="#ffffff" stroke="#e55b15" stroke-width="1.5"/>
  <rect x="70" y="124" width="240" height="28" rx="5" fill="#e55b15"/>
  <rect x="70" y="140" width="240" height="12" fill="#e55b15"/>
  <text x="190" y="144" text-anchor="middle" font-size="12" font-weight="700" fill="#ffffff">8×8 PE Array (MPE)</text>

  <!-- PE Row 1 -->
  <rect x="86" y="162" width="34" height="26" rx="3" fill="#e55b15" stroke="#c14a0f" stroke-width="0.8"/>
  <text x="103" y="179" text-anchor="middle" font-size="9" fill="white" font-weight="600">PE</text>
  <rect x="128" y="162" width="34" height="26" rx="3" fill="#e55b15" stroke="#c14a0f" stroke-width="0.8"/>
  <text x="145" y="179" text-anchor="middle" font-size="9" fill="white" font-weight="600">PE</text>
  <rect x="170" y="162" width="34" height="26" rx="3" fill="#e55b15" stroke="#c14a0f" stroke-width="0.8"/>
  <text x="187" y="179" text-anchor="middle" font-size="9" fill="white" font-weight="600">PE</text>
  <text x="218" y="179" text-anchor="middle" font-size="11" fill="#c14a0f" font-weight="700">···</text>
  <rect x="234" y="162" width="34" height="26" rx="3" fill="#e55b15" stroke="#c14a0f" stroke-width="0.8"/>
  <text x="251" y="179" text-anchor="middle" font-size="9" fill="white" font-weight="600">PE</text>

  <!-- Systolic arrows row1 -->
  <line x1="120" y1="175" x2="128" y2="175" stroke="#c14a0f" stroke-width="1"/>
  <line x1="162" y1="175" x2="170" y2="175" stroke="#c14a0f" stroke-width="1"/>

  <!-- PE Row 2 -->
  <rect x="86" y="196" width="34" height="26" rx="3" fill="#e55b15" stroke="#c14a0f" stroke-width="0.8"/>
  <text x="103" y="213" text-anchor="middle" font-size="9" fill="white" font-weight="600">PE</text>
  <rect x="128" y="196" width="34" height="26" rx="3" fill="#e55b15" stroke="#c14a0f" stroke-width="0.8"/>
  <text x="145" y="213" text-anchor="middle" font-size="9" fill="white" font-weight="600">PE</text>
  <rect x="170" y="196" width="34" height="26" rx="3" fill="#e55b15" stroke="#c14a0f" stroke-width="0.8"/>
  <text x="187" y="213" text-anchor="middle" font-size="9" fill="white" font-weight="600">PE</text>
  <text x="218" y="213" text-anchor="middle" font-size="11" fill="#c14a0f" font-weight="700">···</text>
  <rect x="234" y="196" width="34" height="26" rx="3" fill="#e55b15" stroke="#c14a0f" stroke-width="0.8"/>
  <text x="251" y="213" text-anchor="middle" font-size="9" fill="white" font-weight="600">PE</text>

  <!-- Down arrows -->
  <line x1="103" y1="188" x2="103" y2="196" stroke="#c14a0f" stroke-width="1"/>
  <line x1="145" y1="188" x2="145" y2="196" stroke="#c14a0f" stroke-width="1"/>
  <line x1="187" y1="188" x2="187" y2="196" stroke="#c14a0f" stroke-width="1"/>
  <line x1="251" y1="188" x2="251" y2="196" stroke="#c14a0f" stroke-width="1"/>

  <!-- Vertical dots -->
  <text x="103" y="240" text-anchor="middle" font-size="12" fill="#c14a0f">⋮</text>
  <text x="145" y="240" text-anchor="middle" font-size="12" fill="#c14a0f">⋮</text>
  <text x="187" y="240" text-anchor="middle" font-size="12" fill="#c14a0f">⋮</text>
  <text x="251" y="240" text-anchor="middle" font-size="12" fill="#c14a0f">⋮</text>

  <!-- PE Row 8 -->
  <rect x="86" y="252" width="34" height="26" rx="3" fill="#e55b15" stroke="#c14a0f" stroke-width="0.8"/>
  <text x="103" y="269" text-anchor="middle" font-size="9" fill="white" font-weight="600">PE</text>
  <rect x="128" y="252" width="34" height="26" rx="3" fill="#e55b15" stroke="#c14a0f" stroke-width="0.8"/>
  <text x="145" y="269" text-anchor="middle" font-size="9" fill="white" font-weight="600">PE</text>
  <rect x="170" y="252" width="34" height="26" rx="3" fill="#e55b15" stroke="#c14a0f" stroke-width="0.8"/>
  <text x="187" y="269" text-anchor="middle" font-size="9" fill="white" font-weight="600">PE</text>
  <text x="218" y="269" text-anchor="middle" font-size="11" fill="#c14a0f" font-weight="700">···</text>
  <rect x="234" y="252" width="34" height="26" rx="3" fill="#e55b15" stroke="#c14a0f" stroke-width="0.8"/>
  <text x="251" y="269" text-anchor="middle" font-size="9" fill="white" font-weight="600">PE</text>

  <!-- L0 Scratchpad (left corelet) -->
  <rect x="322" y="124" width="44" height="200" rx="4" fill="#ffffff" stroke="#374151" stroke-width="1.5"/>
  <rect x="322" y="124" width="44" height="28" rx="4" fill="#374151"/>
  <rect x="322" y="140" width="44" height="12" fill="#374151"/>
  <text x="344" y="228" text-anchor="middle" font-size="10" font-weight="700" fill="#374151" transform="rotate(-90, 344, 228)">L0 Scratchpad</text>

  <!-- Arrows PE ↔ L0 -->
  <line x1="312" y1="180" x2="322" y2="180" stroke="#555" stroke-width="1.2"/>
  <line x1="312" y1="220" x2="322" y2="220" stroke="#555" stroke-width="1.2"/>
  <line x1="312" y1="260" x2="322" y2="260" stroke="#555" stroke-width="1.2"/>

  <!-- SFU Array (left corelet) -->
  <rect x="70" y="336" width="296" height="72" rx="5" fill="#ffffff" stroke="#374151" stroke-width="1.5"/>
  <rect x="70" y="336" width="296" height="28" rx="5" fill="#374151"/>
  <rect x="70" y="352" width="296" height="12" fill="#374151"/>
  <text x="218" y="356" text-anchor="middle" font-size="11" font-weight="700" fill="#ffffff">Special Function Unit (SFU) — 1D Vector</text>

  <!-- SFU row 1 -->
  <rect x="82" y="374" width="46" height="22" rx="3" fill="#374151"/>
  <text x="105" y="387" text-anchor="middle" font-size="8" fill="white" font-weight="600">SFU 16/32</text>
  <rect x="134" y="374" width="46" height="22" rx="3" fill="#374151"/>
  <text x="157" y="387" text-anchor="middle" font-size="8" fill="white" font-weight="600">SFU 16/32</text>
  <rect x="186" y="374" width="46" height="22" rx="3" fill="#374151"/>
  <text x="209" y="387" text-anchor="middle" font-size="8" fill="white" font-weight="600">SFU 16/32</text>
  <text x="246" y="388" text-anchor="middle" font-size="12" fill="#374151" font-weight="700">··</text>
  <rect x="260" y="374" width="46" height="22" rx="3" fill="#374151"/>
  <text x="283" y="387" text-anchor="middle" font-size="8" fill="white" font-weight="600">SFU 16/32</text>

  <!-- Arrow PE → SFU -->
  <line x1="190" y1="324" x2="190" y2="336" stroke="#555" stroke-width="1.5" marker-end="url(#arr)"/>

  <!-- ============================== -->
  <!-- CORELET 1 (right)              -->
  <!-- ============================== -->
  <rect x="440" y="80" width="370" height="340" rx="6" fill="#ffffff" stroke="#374151" stroke-width="1.5"/>
  <rect x="440" y="80" width="370" height="32" rx="6" fill="#374151"/>
  <rect x="440" y="100" width="370" height="12" fill="#374151"/>
  <text x="625" y="101" text-anchor="middle" font-size="13" font-weight="700" fill="#ffffff">Corelet 1</text>

  <!-- PE Array -->
  <rect x="460" y="124" width="240" height="200" rx="5" fill="#ffffff" stroke="#e55b15" stroke-width="1.5"/>
  <rect x="460" y="124" width="240" height="28" rx="5" fill="#e55b15"/>
  <rect x="460" y="140" width="240" height="12" fill="#e55b15"/>
  <text x="580" y="144" text-anchor="middle" font-size="12" font-weight="700" fill="#ffffff">8×8 PE Array (MPE)</text>

  <!-- PE Row 1 -->
  <rect x="476" y="162" width="34" height="26" rx="3" fill="#e55b15" stroke="#c14a0f" stroke-width="0.8"/>
  <text x="493" y="179" text-anchor="middle" font-size="9" fill="white" font-weight="600">PE</text>
  <rect x="518" y="162" width="34" height="26" rx="3" fill="#e55b15" stroke="#c14a0f" stroke-width="0.8"/>
  <text x="535" y="179" text-anchor="middle" font-size="9" fill="white" font-weight="600">PE</text>
  <rect x="560" y="162" width="34" height="26" rx="3" fill="#e55b15" stroke="#c14a0f" stroke-width="0.8"/>
  <text x="577" y="179" text-anchor="middle" font-size="9" fill="white" font-weight="600">PE</text>
  <text x="608" y="179" text-anchor="middle" font-size="11" fill="#c14a0f" font-weight="700">···</text>
  <rect x="624" y="162" width="34" height="26" rx="3" fill="#e55b15" stroke="#c14a0f" stroke-width="0.8"/>
  <text x="641" y="179" text-anchor="middle" font-size="9" fill="white" font-weight="600">PE</text>

  <!-- PE Row 2 -->
  <rect x="476" y="196" width="34" height="26" rx="3" fill="#e55b15" stroke="#c14a0f" stroke-width="0.8"/>
  <text x="493" y="213" text-anchor="middle" font-size="9" fill="white" font-weight="600">PE</text>
  <rect x="518" y="196" width="34" height="26" rx="3" fill="#e55b15" stroke="#c14a0f" stroke-width="0.8"/>
  <text x="535" y="213" text-anchor="middle" font-size="9" fill="white" font-weight="600">PE</text>
  <rect x="560" y="196" width="34" height="26" rx="3" fill="#e55b15" stroke="#c14a0f" stroke-width="0.8"/>
  <text x="577" y="213" text-anchor="middle" font-size="9" fill="white" font-weight="600">PE</text>
  <text x="608" y="213" text-anchor="middle" font-size="11" fill="#c14a0f" font-weight="700">···</text>
  <rect x="624" y="196" width="34" height="26" rx="3" fill="#e55b15" stroke="#c14a0f" stroke-width="0.8"/>
  <text x="641" y="213" text-anchor="middle" font-size="9" fill="white" font-weight="600">PE</text>

  <!-- Down arrows -->
  <line x1="493" y1="188" x2="493" y2="196" stroke="#c14a0f" stroke-width="1"/>
  <line x1="535" y1="188" x2="535" y2="196" stroke="#c14a0f" stroke-width="1"/>
  <line x1="577" y1="188" x2="577" y2="196" stroke="#c14a0f" stroke-width="1"/>
  <line x1="641" y1="188" x2="641" y2="196" stroke="#c14a0f" stroke-width="1"/>

  <!-- Vertical dots -->
  <text x="493" y="240" text-anchor="middle" font-size="12" fill="#c14a0f">⋮</text>
  <text x="535" y="240" text-anchor="middle" font-size="12" fill="#c14a0f">⋮</text>
  <text x="577" y="240" text-anchor="middle" font-size="12" fill="#c14a0f">⋮</text>
  <text x="641" y="240" text-anchor="middle" font-size="12" fill="#c14a0f">⋮</text>

  <!-- PE Row 8 -->
  <rect x="476" y="252" width="34" height="26" rx="3" fill="#e55b15" stroke="#c14a0f" stroke-width="0.8"/>
  <text x="493" y="269" text-anchor="middle" font-size="9" fill="white" font-weight="600">PE</text>
  <rect x="518" y="252" width="34" height="26" rx="3" fill="#e55b15" stroke="#c14a0f" stroke-width="0.8"/>
  <text x="535" y="269" text-anchor="middle" font-size="9" fill="white" font-weight="600">PE</text>
  <rect x="560" y="252" width="34" height="26" rx="3" fill="#e55b15" stroke="#c14a0f" stroke-width="0.8"/>
  <text x="577" y="269" text-anchor="middle" font-size="9" fill="white" font-weight="600">PE</text>
  <text x="608" y="269" text-anchor="middle" font-size="11" fill="#c14a0f" font-weight="700">···</text>
  <rect x="624" y="252" width="34" height="26" rx="3" fill="#e55b15" stroke="#c14a0f" stroke-width="0.8"/>
  <text x="641" y="269" text-anchor="middle" font-size="9" fill="white" font-weight="600">PE</text>

  <!-- L0 Scratchpad (right corelet) -->
  <rect x="712" y="124" width="44" height="200" rx="4" fill="#ffffff" stroke="#374151" stroke-width="1.5"/>
  <rect x="712" y="124" width="44" height="28" rx="4" fill="#374151"/>
  <rect x="712" y="140" width="44" height="12" fill="#374151"/>
  <text x="734" y="228" text-anchor="middle" font-size="10" font-weight="700" fill="#374151" transform="rotate(-90, 734, 228)">L0 Scratchpad</text>

  <!-- Arrows PE ↔ L0 -->
  <line x1="702" y1="180" x2="712" y2="180" stroke="#555" stroke-width="1.2"/>
  <line x1="702" y1="220" x2="712" y2="220" stroke="#555" stroke-width="1.2"/>
  <line x1="702" y1="260" x2="712" y2="260" stroke="#555" stroke-width="1.2"/>

  <!-- SFU Array (right corelet) -->
  <rect x="460" y="336" width="296" height="72" rx="5" fill="#ffffff" stroke="#374151" stroke-width="1.5"/>
  <rect x="460" y="336" width="296" height="28" rx="5" fill="#374151"/>
  <rect x="460" y="352" width="296" height="12" fill="#374151"/>
  <text x="608" y="356" text-anchor="middle" font-size="11" font-weight="700" fill="#ffffff">Special Function Unit (SFU) — 1D Vector</text>

  <!-- SFU row 1 -->
  <rect x="472" y="374" width="46" height="22" rx="3" fill="#374151"/>
  <text x="495" y="387" text-anchor="middle" font-size="8" fill="white" font-weight="600">SFU 16/32</text>
  <rect x="524" y="374" width="46" height="22" rx="3" fill="#374151"/>
  <text x="547" y="387" text-anchor="middle" font-size="8" fill="white" font-weight="600">SFU 16/32</text>
  <rect x="576" y="374" width="46" height="22" rx="3" fill="#374151"/>
  <text x="599" y="387" text-anchor="middle" font-size="8" fill="white" font-weight="600">SFU 16/32</text>
  <text x="636" y="388" text-anchor="middle" font-size="12" fill="#374151" font-weight="700">··</text>
  <rect x="650" y="374" width="46" height="22" rx="3" fill="#374151"/>
  <text x="673" y="387" text-anchor="middle" font-size="8" fill="white" font-weight="600">SFU 16/32</text>

  <!-- Arrow PE → SFU -->
  <line x1="580" y1="324" x2="580" y2="336" stroke="#555" stroke-width="1.5" marker-end="url(#arr)"/>

  <!-- ============================== -->
  <!-- Shared LX Scratchpad           -->
  <!-- ============================== -->
  <rect x="100" y="440" width="660" height="54" rx="6" fill="#ffffff" stroke="#e55b15" stroke-width="2"/>
  <rect x="100" y="440" width="660" height="30" rx="6" fill="#e55b15"/>
  <rect x="100" y="458" width="660" height="12" fill="#e55b15"/>
  <text x="430" y="460" text-anchor="middle" font-size="13" font-weight="700" fill="#ffffff">LX Scratchpad (L1) — 2 MB SRAM per Core</text>
  <text x="430" y="484" text-anchor="middle" font-size="11" fill="#374151">Compiler-managed explicit DMA — no hardware cache</text>

  <!-- Arrows corelets → LX -->
  <line x1="235" y1="420" x2="235" y2="440" stroke="#e55b15" stroke-width="2" marker-end="url(#arr)"/>
  <line x1="625" y1="420" x2="625" y2="440" stroke="#e55b15" stroke-width="2" marker-end="url(#arr)"/>

  <!-- Bandwidth labels -->
  <text x="260" y="434" font-size="10" fill="#c14a0f" font-weight="600">128 B/cycle</text>
  <text x="650" y="434" font-size="10" fill="#c14a0f" font-weight="600">128 B/cycle</text>

  <!-- ============================== -->
  <!-- Ring Interconnect              -->
  <!-- ============================== -->
  <rect x="100" y="530" width="660" height="34" rx="6" fill="#374151"/>
  <!-- Arrow LX → label -->
  <line x1="430" y1="494" x2="430" y2="520" stroke="#374151" stroke-width="2"/>

  <!-- "To memory and neighbor cores" label box -->
  <rect x="265" y="520" width="330" height="30" rx="5" fill="#ffffff" stroke="#374151" stroke-width="1.5"/>
  <text x="430" y="541" text-anchor="middle" font-size="14" fill="#374151" font-weight="700">To Memory and Neighbor Cores</text>

  <!-- Arrow label → Ring -->
  <line x1="430" y1="550" x2="430" y2="576" stroke="#374151" stroke-width="2" marker-end="url(#arr)"/>

  <!-- Ring Interconnect -->
  <rect x="100" y="576" width="660" height="36" rx="6" fill="#374151"/>
  <text x="430" y="600" text-anchor="middle" font-size="13" font-weight="700" fill="#ffffff">Bi-directional Ring Interconnect — 128 B/cycle per direction</text>

  <!-- Bottom annotation -->
  <text x="430" y="632" text-anchor="middle" font-size="12" fill="#1f2937" font-style="italic">128 GB LPDDR5 device memory  ·  32 cores connected via ring  ·  >300 TOPS at 75W</text>

</svg>
