<svg viewBox="0 0 860 325" xmlns="http://www.w3.org/2000/svg"
     font-family="-apple-system, BlinkMacSystemFont, 'Segoe UI', sans-serif">

  <!-- Layer 4 base: PyTorch Upstream Tests -->
  <polygon points="10,278 600,278 530,220 80,220" fill="#E8EEF8" stroke="#8898C8" stroke-width="1.3"/>
  <text x="305" y="242" text-anchor="middle" font-size="12" font-weight="700" fill="#1a3a7a">PyTorch Upstream Tests</text>
  <text x="305" y="257" text-anchor="middle" font-size="10.5" fill="#3a5a9a">test_view_ops · instantiate_device_type_tests · OpInfo allowlist</text>

  <!-- Layer 3: Op-Level -->
  <polygon points="80,217 530,217 460,163 150,163" fill="#eaf2ea" stroke="#9ec49e" stroke-width="1.3"/>
  <text x="305" y="187" text-anchor="middle" font-size="12" font-weight="700" fill="#2d5a2d">Op-Level</text>
  <text x="305" y="203" text-anchor="middle" font-size="10.5" fill="#2d5a2d">test_inductor_ops.py · Each op vs. CPU reference · fp16 tolerances</text>

  <!-- Layer 2: Building Blocks -->
  <polygon points="150,160 460,160 390,108 220,108" fill="#fef0e6" stroke="#e0915a" stroke-width="1.3"/>
  <text x="305" y="131" text-anchor="middle" font-size="12" font-weight="700" fill="#7a3a00">Building Blocks</text>
  <text x="305" y="147" text-anchor="middle" font-size="10.5" fill="#7a3a00">test_building_blocks.py · FFN · Attention · Norm layers</text>

  <!-- Layer 1: End-to-End (top) -->
  <polygon points="220,105 390,105 305,20" fill="#374151" stroke="#4b5563" stroke-width="1.3"/>
  <text x="305" y="68" text-anchor="middle" font-size="12" font-weight="700" fill="#ffffff">End-to-End</text>
  <text x="305" y="84" text-anchor="middle" font-size="10.5" fill="#f1f5f9">test_model_ops.py</text>

  <!-- Right annotations -->
  <line x1="393" y1="74" x2="424" y2="74" stroke="#374151" stroke-width="1" stroke-dasharray="3,2"/>
  <text x="428" y="70"  font-size="10.5" fill="#1f2937">Full model forward pass</text>
  <text x="428" y="82"  font-size="10.5" fill="#374151">Real weights · YAML tolerance configs</text>
  <text x="428" y="94"  font-size="10.5" fill="#1f2937">Granite 3.3 8B traces</text>

  <line x1="462" y1="133" x2="492" y2="133" stroke="#374151" stroke-width="1" stroke-dasharray="3,2"/>
  <text x="496" y="129" font-size="10.5" fill="#1f2937">Transformer components</text>
  <text x="496" y="141" font-size="10.5" fill="#374151">Composed subgraphs · realistic shapes</text>

  <line x1="532" y1="190" x2="556" y2="190" stroke="#374151" stroke-width="1" stroke-dasharray="3,2"/>
  <text x="560" y="186" font-size="10.5" fill="#1f2937">Op vs. CPU reference output</text>
  <text x="560" y="198" font-size="10.5" fill="#374151">fp16 tolerance profiles</text>

  <line x1="602" y1="249" x2="626" y2="249" stroke="#374151" stroke-width="1" stroke-dasharray="3,2"/>
  <text x="630" y="243" font-size="10.5" fill="#1f2937">PyTorch device compatibility</text>
  <text x="630" y="255" font-size="10.5" fill="#374151">Maintained allowlist per op</text>
  <text x="630" y="267" font-size="10.5" fill="#1f2937">Runs in CI on every PR — no Spyre HW needed</text>

  <!-- Left annotation -->
  <!-- left annotations moved above CI bar -->
  <text x="6" y="283" font-size="10.5" fill="#374151">Largest suite</text>
  <text x="6" y="293" font-size="10.5" fill="#1f2937">No HW needed</text>

  <!-- All levels run in CI banner -->
  <rect x="10" y="307" width="590" height="10" rx="2" fill="#f0fdf4" stroke="#86efac" stroke-width="1"/>
  <text x="305" y="315" text-anchor="middle" font-size="11.5" font-weight="600" fill="#166534">All 4 levels run in CI on every PR</text>
</svg>
